<svg width="32" height="32" viewBox="0 0 32 32" fill="none" xmlns="http://www.w3.org/2000/svg">
<g clip-path="url(#clip0)">
<path d="M32 16.0959C31.9996 13.0383 31.1232 10.0449 29.4744 7.46989C27.8256 4.89493 25.4735 2.84633 22.6966 1.5666C19.9197 0.286878 16.8343 -0.17037 13.8055 0.248991C10.7768 0.668351 7.93171 1.94676 5.60699 3.93286C3.28227 5.91897 1.57532 8.5296 0.688211 11.4557C-0.198895 14.3818 -0.229004 17.5008 0.601451 20.4434C1.43191 23.3861 3.08814 26.0292 5.37409 28.0598C7.66003 30.0904 10.48 31.4235 13.5 31.9013V20.7213H9.43733V16.0959H13.5V12.5706C13.5 8.56127 15.8893 6.34527 19.5427 6.34527C20.7429 6.36248 21.9402 6.46676 23.1253 6.65727V10.5959H21.1067C20.499 10.5153 19.8842 10.6792 19.3973 11.0518C18.9105 11.4243 18.5916 11.975 18.5107 12.5826C18.4878 12.7528 18.4842 12.925 18.5 13.0959V16.0959H22.9333L22.224 20.7213H18.4907V31.9013C22.2561 31.3079 25.6859 29.3897 28.1626 26.4921C30.6393 23.5944 32.0001 19.9078 32 16.0959Z" fill="#212121"/>
</g>
<defs>
<clipPath id="clip0">
<rect width="32" height="32" fill="white"/>
</clipPath>
</defs>
</svg>
