<svg width="32" height="32" viewBox="0 0 32 32" fill="none" xmlns="http://www.w3.org/2000/svg">
<path d="M25.3333 30.6667H6.66668C3.72134 30.6667 1.33334 28.2787 1.33334 25.3334V6.66671C1.33334 3.72137 3.72134 1.33337 6.66668 1.33337H25.3333C28.2787 1.33337 30.6667 3.72137 30.6667 6.66671V25.3334C30.6667 28.2787 28.2787 30.6667 25.3333 30.6667Z" stroke="#212121" stroke-width="2" stroke-miterlimit="10" stroke-linecap="square"/>
<path d="M16 24C20.4183 24 24 20.4183 24 16C24 11.5817 20.4183 8 16 8C11.5817 8 8 11.5817 8 16C8 20.4183 11.5817 24 16 24Z" stroke="#212121" stroke-width="2" stroke-miterlimit="10" stroke-linecap="square"/>
<path d="M6.66668 8.00004C7.40306 8.00004 8.00001 7.40309 8.00001 6.66671C8.00001 5.93033 7.40306 5.33337 6.66668 5.33337C5.9303 5.33337 5.33334 5.93033 5.33334 6.66671C5.33334 7.40309 5.9303 8.00004 6.66668 8.00004Z" fill="#212121"/>
</svg>
