<svg width="376" height="487" viewBox="0 0 376 487" fill="none" xmlns="http://www.w3.org/2000/svg">
<g clip-path="url(#clip0)">
<path fill-rule="evenodd" clip-rule="evenodd" d="M254.413 220.357H271.279C273.622 220.357 275.514 222.249 275.514 224.593V256.841C275.514 299.184 245.651 334.668 205.891 343.371V364.353H221.878C223.22 364.353 224.489 364.988 225.283 366.074L247.103 395.662C248.055 396.943 248.201 398.652 247.481 400.08C246.761 401.508 245.297 402.412 243.698 402.412H130.154C128.555 402.412 127.091 401.508 126.371 400.08C125.651 398.664 125.797 396.943 126.749 395.662L148.569 366.074C149.363 364.988 150.632 364.353 151.974 364.353H167.973V343.371C128.213 334.668 98.3507 299.184 98.3507 256.841V224.593C98.3507 222.249 100.242 220.357 102.585 220.357H119.463V154.078C119.463 116.861 149.729 86.5903 186.938 86.5903C224.148 86.5903 254.413 116.861 254.413 154.078V220.357ZM244.821 142.738C239.525 115.604 215.593 95.0613 186.938 95.0613C158.271 95.0613 134.352 115.604 129.031 142.702H133.229C135.572 142.702 137.464 144.594 137.464 146.937C137.464 149.281 135.572 151.173 133.229 151.173H128.616C128.501 151.173 128.395 151.143 128.289 151.114L128.289 151.114L128.289 151.114C128.215 151.093 128.142 151.073 128.067 151.063C128.051 151.4 128.029 151.735 128.007 152.068C127.963 152.725 127.921 153.378 127.921 154.041V159.363C128.009 159.349 128.096 159.326 128.183 159.303L128.183 159.303C128.324 159.266 128.465 159.229 128.616 159.229H140.027C142.37 159.229 144.261 161.121 144.261 163.464C144.261 165.808 142.37 167.7 140.027 167.7H128.616C128.465 167.7 128.324 167.663 128.183 167.625C128.096 167.603 128.009 167.58 127.921 167.566V175.17C128.009 175.156 128.096 175.133 128.183 175.11C128.324 175.073 128.465 175.036 128.616 175.036H147.654C149.997 175.036 151.889 176.928 151.889 179.271C151.889 181.615 149.997 183.507 147.654 183.507H128.616C128.465 183.507 128.324 183.47 128.183 183.432C128.096 183.409 128.009 183.387 127.921 183.373V251.41C127.921 283.951 154.391 310.426 186.926 310.426C219.461 310.426 245.932 283.951 245.932 251.41V183.373C245.884 183.382 245.837 183.394 245.79 183.406C245.756 183.415 245.722 183.424 245.689 183.434L245.688 183.434C245.534 183.477 245.381 183.519 245.212 183.519H226.174C223.83 183.519 221.939 181.627 221.939 179.284C221.939 176.94 223.83 175.048 226.174 175.048H245.212C245.381 175.048 245.534 175.091 245.688 175.133C245.723 175.143 245.758 175.153 245.793 175.162C245.839 175.174 245.885 175.185 245.932 175.195V167.578C245.849 167.594 245.768 167.617 245.689 167.639L245.688 167.639C245.534 167.682 245.381 167.724 245.212 167.724H233.801C231.458 167.724 229.566 165.832 229.566 163.489C229.566 161.145 231.458 159.253 233.801 159.253H245.212C245.381 159.253 245.534 159.296 245.689 159.339C245.768 159.361 245.849 159.383 245.932 159.4V154.078C245.932 153.409 245.888 152.745 245.844 152.083C245.823 151.755 245.801 151.427 245.785 151.1C245.704 151.11 245.627 151.13 245.55 151.151C245.442 151.18 245.333 151.209 245.212 151.209H240.598C238.255 151.209 236.364 149.318 236.364 146.974C236.364 144.63 238.255 142.738 240.598 142.738H244.821ZM106.82 228.816V256.829C106.82 294.485 132.924 326.135 167.973 334.655V316.139C139.978 307.924 119.451 282.035 119.451 251.41V228.816H106.82ZM235.314 393.94L219.742 372.812H154.11L138.538 393.94H235.314ZM176.443 318.018V364.353H197.409V318.018C193.98 318.555 190.502 318.922 186.926 318.922C183.35 318.922 179.872 318.555 176.443 318.018ZM205.891 334.668C240.94 326.135 267.044 294.485 267.044 256.829H267.056V228.828H254.413V251.422C254.413 282.047 233.886 307.936 205.891 316.151V334.668ZM150.9 228.706C148.557 228.706 146.666 226.814 146.666 224.471C146.666 215.926 153.634 208.993 162.165 208.993C170.695 208.993 177.639 215.926 177.639 224.471C177.639 226.814 175.747 228.706 173.404 228.706C171.061 228.706 169.169 226.814 169.169 224.471C169.169 220.601 166.021 217.452 162.152 217.452C158.284 217.452 155.135 220.601 155.135 224.471C155.135 226.814 153.243 228.706 150.9 228.706ZM200.472 228.706C202.815 228.706 204.707 226.814 204.707 224.471C204.707 220.601 207.856 217.452 211.724 217.452C215.593 217.452 218.741 220.601 218.741 224.471C218.741 226.814 220.633 228.706 222.976 228.706C225.319 228.706 227.211 226.814 227.211 224.471C227.211 215.926 220.267 208.993 211.736 208.993C203.194 208.993 196.25 215.939 196.25 224.471C196.238 226.802 198.141 228.706 200.472 228.706ZM186.938 287.967C165.35 287.967 147.788 270.402 147.788 248.81C147.788 246.527 149.582 244.66 151.877 244.574C220.987 242.023 223.232 244.184 224.721 245.624C225.551 246.429 226.088 247.662 226.088 248.81C226.088 270.402 208.527 287.967 186.938 287.967ZM186.926 279.484C202.706 279.484 215.739 267.522 217.423 252.179C208.576 251.58 181.91 252.008 156.514 252.874C158.516 267.876 171.391 279.484 186.926 279.484Z" fill="black"/>
<path d="M5.99208 204.27L39.6746 203.806L39.7479 209.457L45.3494 209.384L45.0932 191.221L39.4916 191.294L39.577 197.019L24.8104 197.214L24.6151 182.713L19.0136 182.799L19.2088 197.3L5.90665 197.483L5.67478 180.651L13.1679 180.553L13.0947 175.011L0 175.195L0.488153 210.006L6.07751 209.921L5.99208 204.27Z" fill="black"/>
<path d="M22.9188 159.754L15.926 158.57L14.0588 169.58L19.4895 170.495L20.539 164.307L40.5533 167.712L39.5038 173.901L44.9101 174.816L48.1319 155.884L42.7256 154.969L41.5784 161.695L34.5856 160.511C31.3028 159.949 28.8254 159.266 27.1779 158.448C25.5304 157.63 24.4077 156.348 23.8219 154.603C23.2239 152.845 23.2239 150.331 23.7731 147.047L23.9927 145.729L17.8542 144.679L17.6223 146.058C17.0487 149.464 17.1342 152.174 17.9152 154.188C18.7085 156.19 20.3682 158.045 22.9188 159.754Z" fill="black"/>
<path d="M49.7672 131.826L48.2417 136.342L23.7853 128.079L20.2462 138.54L25.4694 140.297L27.0315 135.683L46.2647 142.189L44.7026 146.803L49.8893 148.561L54.9538 133.584L49.7672 131.826Z" fill="black"/>
<path d="M11.5448 131.362C12.5089 131.68 13.4486 131.631 14.3639 131.191C15.2914 130.752 15.9138 130.044 16.2433 129.092C16.5728 128.128 16.4996 127.188 16.0358 126.248C15.5721 125.32 14.8643 124.698 13.9002 124.368C12.8995 124.039 11.9476 124.087 11.0445 124.539C10.1414 124.991 9.519 125.711 9.17729 126.7C8.84779 127.664 8.92101 128.592 9.39696 129.507C9.87291 130.41 10.5929 131.033 11.5448 131.362Z" fill="black"/>
<path d="M41.6639 123.27C44.4097 124.832 47.2288 125.601 50.1455 125.577C53.0622 125.552 55.7715 124.759 58.2977 123.184C60.8239 121.61 62.9229 119.352 64.5827 116.41C66.1936 113.59 67.0966 110.624 67.2797 107.548C67.475 104.472 66.8404 101.531 65.3637 98.7231L60.5554 102.226C61.4951 104.13 61.91 106.071 61.7758 108.024C61.6415 109.977 61.068 111.857 60.0428 113.651C58.6516 116.105 56.7112 117.74 54.246 118.57C51.7808 119.4 49.1448 119.242 46.3501 118.082L59.335 95.2932C56.0644 93.5721 52.9158 92.6445 49.8526 92.5346C46.8017 92.4126 44.0314 93.0595 41.554 94.4632C39.0767 95.8791 37.0142 98.003 35.3789 100.871C33.8778 103.484 33.1334 106.242 33.1334 109.123C33.1334 112.003 33.8656 114.689 35.3423 117.179C36.8434 119.693 38.9424 121.719 41.6639 123.27ZM39.9187 103.313C41.1269 101.189 42.8721 99.6996 45.142 98.8574C47.4241 98.003 49.816 97.9664 52.33 98.7353L42.628 115.763C40.651 114.066 39.4184 112.064 38.9302 109.782C38.4299 107.487 38.7594 105.339 39.9187 103.313Z" fill="black"/>
<path d="M58.2123 78.461L72.7226 92.6689L68.8662 96.5993L72.7836 100.432L84.658 88.2991L80.7406 84.4664L76.9696 88.3235L65.0708 76.6789C65.5346 72.3457 66.7183 69.2087 68.6343 67.2435C69.5374 66.3159 70.4893 65.9497 71.49 66.145C72.4908 66.3403 73.6989 67.1215 75.1024 68.5008L89.869 82.9528L97.8381 74.7991L93.9207 70.9664L90.2595 74.7137L79.1296 63.8136C76.518 61.2625 74.1261 59.8588 71.9538 59.6025C69.7815 59.3584 67.7191 60.225 65.7542 62.2268C63.3989 64.6314 61.8856 68.1956 61.2022 72.895L58.5052 70.2585L50.4018 78.5342L54.3437 82.3913L58.2123 78.461Z" fill="black"/>
<path d="M97.2645 66.267C99.5954 67.7318 102.122 68.5008 104.831 68.5618C107.54 68.6228 110.201 67.9027 112.812 66.3891C116.571 64.2042 118.951 60.8475 119.939 56.3191L122.234 60.286L132.399 54.3661L129.641 49.6301L124.748 52.4741L104.99 18.419L94.482 24.5343L97.2035 29.2215L102.427 26.1821L108.651 36.8991C106.295 36.24 104.135 36.0203 102.158 36.2278C100.181 36.4353 98.314 37.0456 96.5689 38.0709C94.1525 39.4746 92.2731 41.4276 90.9551 43.9298C89.6371 46.4321 89.0147 49.1174 89.1246 52.0103C89.2222 54.8909 90.0276 57.6373 91.5531 60.2494C93.0176 62.7883 94.9336 64.8023 97.2645 66.267ZM96.5445 46.3467C97.3133 44.7354 98.5215 43.4538 100.145 42.5139C101.829 41.5374 103.574 41.0614 105.38 41.0858C107.186 41.1102 108.87 41.6107 110.432 42.5628C111.995 43.5148 113.264 44.8331 114.24 46.5175C115.204 48.1776 115.741 49.9597 115.827 51.8638C115.924 53.768 115.558 55.5257 114.74 57.1735C113.935 58.8213 112.702 60.1152 111.055 61.0794C109.444 62.0193 107.748 62.4587 105.978 62.4099C104.208 62.3611 102.537 61.8484 100.962 60.8841C99.388 59.9199 98.0944 58.5528 97.0815 56.8073C96.1296 55.1839 95.6048 53.4384 95.5194 51.5709C95.4217 49.6911 95.7756 47.9579 96.5445 46.3467Z" fill="black"/>
<path d="M150.107 41.7816C151.852 44.0763 154.086 45.773 156.795 46.8471C159.492 47.9335 162.409 48.2508 165.508 47.7992C168.51 47.3598 171.147 46.2368 173.416 44.4181C175.674 42.5994 177.334 40.3412 178.408 37.6437C179.482 34.9461 179.799 32.0777 179.36 29.075C178.933 26.1211 177.822 23.509 176.04 21.2265C174.258 18.9317 172.025 17.235 169.34 16.1121C166.643 14.9891 163.788 14.6473 160.737 15.099C157.6 15.5506 154.891 16.6614 152.621 18.4312C150.351 20.2011 148.704 22.4227 147.679 25.0958C146.653 27.7689 146.373 30.6862 146.836 33.8232C147.264 36.8381 148.35 39.4868 150.107 41.7816ZM153.744 27.5248C154.378 25.7793 155.379 24.3268 156.746 23.155C158.113 21.9832 159.712 21.2631 161.518 21.0067C163.36 20.7382 165.118 20.9823 166.765 21.7269C168.425 22.4837 169.792 23.5822 170.866 25.0592C171.94 26.5239 172.611 28.1839 172.892 30.0393C173.172 31.919 173.001 33.7255 172.391 35.4344C171.781 37.1554 170.793 38.5836 169.414 39.7554C168.035 40.9149 166.448 41.6351 164.642 41.8914C162.836 42.16 161.091 41.928 159.419 41.2079C157.747 40.4877 156.368 39.3892 155.269 37.9C154.171 36.4109 153.488 34.7508 153.219 32.9077C152.938 31.0402 153.121 29.2581 153.744 27.5248Z" fill="black"/>
<path d="M201.327 40.4633L195.432 40.1948L196.335 19.9082L201.693 20.1523L201.937 14.6473L196.579 14.4154L196.799 9.67945C196.884 7.88515 197.092 6.66454 197.458 5.981C197.824 5.29745 198.483 4.98009 199.459 5.02892C200.826 5.08995 201.558 6.13967 201.644 8.16589L207.16 7.58C206.892 5.16318 206.086 3.33227 204.768 2.06283C203.438 0.805597 201.644 0.122054 199.386 0.0121989C196.653 -0.109862 194.541 0.683536 193.065 2.41681C191.588 4.13787 190.782 6.43262 190.648 9.27665L190.429 14.1347L185.852 13.9272L185.608 19.4321L190.184 19.6397L189.269 39.9262L184.693 39.7187L184.449 45.1871L201.07 45.9316L201.327 40.4633Z" fill="black"/>
<path d="M229.371 52.7671C230.494 53.1088 232.044 53.2797 234.033 53.2919L235.632 47.9579C234.472 48.0067 233.374 47.8724 232.324 47.5551C231.47 47.2987 230.933 46.8837 230.726 46.2856C230.518 45.6997 230.665 44.5768 231.153 42.9534L235.851 27.2319L241.331 28.8675L242.905 23.5944L237.426 21.9588L240.391 12.0352L232.873 15.6605L231.519 20.2011L227.601 19.0293L226.027 24.3024L229.932 25.4742L224.868 42.4163C223.965 45.4312 223.867 47.7382 224.575 49.3127C225.307 50.8751 226.894 52.0347 229.371 52.7671Z" fill="black"/>
<path d="M238.499 48.4949L235.924 53.3286L251.094 61.3846L253.669 56.551L248.885 54.0121L256.903 38.9131C261.394 38.254 264.64 38.4737 266.654 39.5479C267.85 40.1826 268.509 41.0492 268.655 42.16C268.789 43.2707 268.338 44.8087 267.288 46.7983L257.672 64.9L267.789 70.2707L270.364 65.437L265.677 62.947L273.756 47.7504C276.71 42.1966 275.624 38.0465 270.486 35.3245C267.679 33.8354 263.944 33.5424 259.283 34.4579L267.374 19.2369L256.988 13.7197L254.45 18.5045L259.392 21.1288L243.454 51.1315L238.499 48.4949Z" fill="black"/>
<path d="M289.267 88.5066C292.233 89.3855 295.235 89.4221 298.286 88.6165L295.955 83.1481C293.893 83.6364 291.903 83.5997 290.036 83.0383C288.157 82.4646 286.461 81.4881 284.947 80.0844C282.873 78.1802 281.713 75.9221 281.457 73.3222C281.201 70.7345 281.957 68.1956 283.715 65.7422L303.009 83.5265C305.425 80.7313 307.024 77.8629 307.829 74.909C308.635 71.9551 308.623 69.1233 307.805 66.3891C307 63.6549 305.376 61.1771 302.948 58.9312C300.739 56.8805 298.225 55.5379 295.418 54.8909C292.623 54.244 289.841 54.3539 287.071 55.2327C284.3 56.1116 281.86 57.6983 279.736 60.0053C277.601 62.3245 276.209 64.9122 275.575 67.7562C274.94 70.6002 275.111 73.432 276.075 76.2395C277.039 79.0469 278.772 81.5979 281.249 83.8927C283.641 86.0898 286.314 87.6278 289.267 88.5066ZM293.49 60.3593C295.833 60.3959 297.859 61.2015 299.567 62.7761C301.361 64.4239 302.423 66.4623 302.728 68.8792C303.045 71.2838 302.545 73.6273 301.239 75.8977L286.839 62.6174C288.926 61.0794 291.147 60.3227 293.49 60.3593Z" fill="black"/>
<path d="M312.394 124.344L317.409 121.866L314.822 116.63L325.232 111.479L327.844 116.764C330.553 122.147 333.604 125.394 336.997 126.529C340.389 127.664 343.916 127.322 347.589 125.516C350.543 124.051 352.654 122.366 353.935 120.45C355.217 118.534 355.693 116.178 355.4 113.37C355.095 110.563 353.948 107.145 351.946 103.105L344.539 88.1282L339.523 90.6061L342 95.6228L311.82 110.563L309.33 105.546L304.315 108.024L312.394 124.344ZM345.002 101.689L347.077 105.876C348.846 109.452 349.518 112.272 349.078 114.323C348.639 116.373 347.175 118.021 344.661 119.266C342.684 120.243 340.975 120.658 339.511 120.523C338.058 120.377 336.74 119.681 335.556 118.424C334.373 117.167 333.177 115.311 331.944 112.833L330.077 109.074L345.002 101.689Z" fill="black"/>
<path d="M351.458 143.312C349.567 141.152 347.248 139.626 344.514 138.759C341.793 137.893 338.864 137.783 335.752 138.417C332.786 139.028 330.199 140.273 328.015 142.153C325.83 144.032 324.268 146.351 323.341 149.122C322.413 151.893 322.267 154.81 322.889 157.886C323.499 160.865 324.781 163.428 326.721 165.576C328.661 167.737 331.017 169.262 333.775 170.178C336.533 171.081 339.401 171.24 342.378 170.629C345.295 170.031 347.846 168.774 350.018 166.87C352.19 164.966 353.765 162.622 354.729 159.876C355.693 157.117 355.864 154.237 355.241 151.222C354.619 148.109 353.362 145.473 351.458 143.312ZM349.005 157.654C348.346 159.351 347.321 160.779 345.918 161.939C344.514 163.098 342.903 163.867 341.073 164.246C339.205 164.636 337.399 164.563 335.654 164.05C333.909 163.538 332.42 162.634 331.175 161.328C329.931 160.022 329.125 158.472 328.759 156.69C328.393 154.908 328.515 153.15 329.137 151.441C329.76 149.733 330.785 148.28 332.2 147.096C333.616 145.912 335.239 145.131 337.07 144.765C338.9 144.386 340.694 144.459 342.464 144.984C344.233 145.509 345.747 146.425 346.991 147.731C348.248 149.037 349.054 150.587 349.42 152.369C349.798 154.2 349.652 155.958 349.005 157.654Z" fill="black"/>
<path d="M350.409 178.978C347.846 177.66 345.051 177.025 342.037 177.074C339.071 177.123 336.386 177.807 333.97 179.125C331.554 180.443 329.65 182.274 328.271 184.605C326.892 186.949 326.221 189.622 326.282 192.637C326.355 196.982 328.124 200.705 331.59 203.781L327.002 203.854L327.197 215.609L332.676 215.511L332.579 209.86L371.961 209.201L371.753 197.056L366.335 197.141L366.432 203.183L354.045 203.391C355.766 201.657 357.011 199.863 357.792 198.044C358.573 196.213 358.951 194.285 358.915 192.259C358.866 189.463 358.073 186.876 356.535 184.496C355.022 182.152 352.971 180.297 350.409 178.978ZM351.983 198.508C351.08 200.071 349.823 201.303 348.236 202.207C346.638 203.11 344.868 203.574 342.928 203.61C340.999 203.647 339.193 203.232 337.485 202.39C335.788 201.548 334.409 200.364 333.372 198.85C332.335 197.336 331.798 195.628 331.773 193.723C331.737 191.856 332.176 190.159 333.091 188.633C333.994 187.108 335.264 185.899 336.875 184.996C338.485 184.093 340.304 183.629 342.33 183.592C344.209 183.556 345.991 183.959 347.663 184.789C349.335 185.619 350.689 186.766 351.714 188.218C352.74 189.683 353.264 191.355 353.301 193.235C353.325 195.2 352.886 196.946 351.983 198.508Z" fill="black"/>
<path d="M13.9368 286.49L13.8879 283.109L8.88438 283.17L8.71352 271.44L17.6955 271.318L17.842 281.522L21.2713 281.473L21.1248 271.269L29.2892 271.147L29.46 282.889L24.8714 282.95L24.9202 286.331L32.9259 286.221L32.6086 263.42L29.1793 263.469L29.2282 266.997L8.6525 267.29L8.60369 263.762L5.18661 263.811L5.50391 286.612L13.9368 286.49Z" fill="black"/>
<path d="M9.17729 309.267L33.2432 308.925L33.1456 301.503L29.8384 301.552L29.8872 305.239L22.3208 305.348C23.3703 304.286 24.1392 303.2 24.6151 302.089C25.1033 300.966 25.323 299.795 25.3108 298.55C25.2863 296.841 24.8104 295.254 23.8707 293.801C22.931 292.349 21.6862 291.214 20.1119 290.408C18.5498 289.603 16.8413 289.212 14.9985 289.236C13.1923 289.261 11.5448 289.676 10.0682 290.481C8.5915 291.287 7.41994 292.398 6.57787 293.826C5.73581 295.254 5.32088 296.877 5.34529 298.72C5.3819 301.381 6.45583 303.652 8.5671 305.532L5.76022 305.568L5.85785 312.758L9.2139 312.709L9.17729 309.267ZM9.519 296.279C10.0804 295.352 10.8492 294.619 11.8377 294.07C12.8262 293.521 13.9368 293.24 15.1816 293.228C16.3287 293.216 17.4149 293.46 18.44 293.96C19.4529 294.473 20.2828 295.169 20.9052 296.06C21.5276 296.951 21.8571 297.976 21.8693 299.136C21.8815 300.332 21.613 301.394 21.0516 302.358C20.5024 303.31 19.7336 304.067 18.7573 304.604C17.781 305.153 16.7071 305.434 15.5111 305.446C14.3273 305.458 13.229 305.214 12.1916 304.689C11.1543 304.164 10.3122 303.456 9.68985 302.529C9.05525 301.601 8.73795 300.551 8.71354 299.392C8.70134 298.244 8.96982 297.207 9.519 296.279Z" fill="black"/>
<path d="M9.95832 321.863L25.6769 320.484L25.0789 313.758L21.735 314.051L21.9913 317.03L9.64102 318.116L9.37254 315.138L6.04089 315.431L6.88296 325.061L10.2146 324.768L9.95832 321.863Z" fill="black"/>
<path d="M33.3653 316.163C32.8771 315.76 32.3279 315.602 31.7177 315.65C31.0954 315.699 30.5828 315.968 30.1801 316.444C29.7773 316.92 29.5943 317.457 29.6431 318.079C29.6919 318.702 29.9726 319.202 30.4608 319.617C30.9489 320.032 31.4981 320.203 32.1205 320.142C32.7551 320.093 33.2798 319.825 33.6704 319.349C34.0609 318.873 34.2317 318.311 34.1829 317.677C34.1219 317.066 33.8534 316.554 33.3653 316.163Z" fill="black"/>
<path d="M11.7035 335.437C11.618 334.899 11.7157 334.497 11.9719 334.228C12.2404 333.96 12.8872 333.74 13.9246 333.569L23.8219 331.982L24.371 335.424L27.6905 334.887L27.1413 331.445L33.3897 330.444L29.399 327.258L26.5433 327.722L26.1406 325.269L22.8211 325.794L23.2239 328.259L12.5577 329.968C10.6539 330.273 9.36032 330.823 8.68911 331.64C8.0179 332.446 7.79823 333.63 8.05451 335.192C8.16434 335.9 8.48164 336.804 9.00641 337.902L12.3625 337.365C12.0208 336.73 11.8011 336.096 11.7035 335.437Z" fill="black"/>
<path d="M14.2785 347.008L29.6309 343.395L28.0932 336.816L24.8104 337.585L25.4938 340.49L13.412 343.334L12.7286 340.429L9.47015 341.198L11.6913 350.609L14.9497 349.84L14.2785 347.008Z" fill="black"/>
<path d="M33.2188 340.429C33.3653 341.027 33.707 341.503 34.2439 341.833C34.7809 342.162 35.3545 342.26 35.9525 342.125C36.5749 341.979 37.0508 341.637 37.3803 341.112C37.7098 340.587 37.7953 340.014 37.6488 339.391C37.5024 338.793 37.1729 338.329 36.6359 338C36.0989 337.682 35.5253 337.585 34.9274 337.731C34.3294 337.866 33.8534 338.207 33.5117 338.732C33.17 339.269 33.0724 339.831 33.2188 340.429Z" fill="black"/>
<path d="M17.9152 359.751L27.5075 356.37C29.7652 357.798 31.1686 359.287 31.7178 360.874C31.9741 361.619 31.9252 362.241 31.5469 362.742C31.1686 363.242 30.412 363.694 29.2892 364.084L17.3783 368.283L19.6848 374.862L22.8456 373.752L21.7839 370.737L30.7537 367.575C32.8527 366.831 34.2684 365.903 34.9884 364.78C35.7084 363.657 35.7939 362.29 35.2203 360.679C34.5369 358.738 32.9992 356.944 30.6072 355.308L32.7917 354.539L30.4364 347.862L27.2512 348.973L28.3739 352.147L16.6704 356.272L15.5477 353.099L12.3869 354.21L15.8406 363.987L19.0014 362.876L17.9152 359.751Z" fill="black"/>
<path d="M43.6531 385.848C44.0558 384.444 44.2267 383.15 44.1534 381.942C44.0802 380.733 43.7385 379.574 43.1527 378.463C42.3229 376.913 41.1635 375.717 39.6746 374.874C38.1736 374.032 36.5505 373.605 34.7931 373.605C33.0358 373.593 31.3516 374.02 29.7529 374.874C28.1908 375.704 26.946 376.827 26.0064 378.219C25.0667 379.61 24.5297 381.148 24.4077 382.821C24.2856 384.493 24.6273 386.104 25.4572 387.667C26.0552 388.777 26.885 389.766 27.9834 390.62C29.0695 391.475 30.2411 392.049 31.4859 392.317L29.9116 393.159C28.203 394.075 26.5799 394.331 25.03 393.94C23.4924 393.55 22.272 392.525 21.3811 390.852C20.893 389.925 20.5757 389.009 20.4536 388.082C20.3194 387.154 20.3438 386.153 20.5024 385.079L16.9755 384.224C16.4752 386.934 16.9389 389.644 18.3668 392.341C19.88 395.186 21.8326 396.931 24.2246 397.554C26.6165 398.176 29.277 397.712 32.2303 396.15L44.8857 389.412L46.5088 392.464L49.4743 390.877L46.1061 384.53L43.6531 385.848ZM39.8821 386.983C39.2475 387.923 38.4421 388.655 37.4779 389.168C36.4406 389.717 35.3667 389.986 34.2317 389.986C33.0968 389.986 32.035 389.705 31.0587 389.143C30.0824 388.582 29.3136 387.764 28.7522 386.714C28.1908 385.677 27.959 384.615 28.0444 383.529C28.1298 382.442 28.4959 381.454 29.1305 380.55C29.7773 379.647 30.6194 378.915 31.6689 378.353C32.6941 377.804 33.7802 377.523 34.9151 377.511C36.0501 377.499 37.0996 377.767 38.0637 378.304C39.0278 378.841 39.7723 379.623 40.3092 380.636C40.8584 381.661 41.0781 382.747 40.9804 383.87C40.895 385.006 40.5289 386.043 39.8821 386.983Z" fill="black"/>
<path d="M60.2503 410.028C60.592 409.223 60.7018 408.368 60.592 407.489C60.4822 406.61 60.1405 405.817 59.5669 405.085C59.0299 404.413 58.3465 403.913 57.5166 403.583C56.6868 403.254 55.8325 403.156 54.9538 403.29C54.0752 403.425 53.2819 403.754 52.5863 404.316C51.9029 404.853 51.4025 405.549 51.0852 406.366C50.7679 407.184 50.6703 408.039 50.7923 408.905C50.9144 409.772 51.2439 410.565 51.8053 411.249C52.3666 411.957 53.0622 412.457 53.8921 412.762C54.722 413.067 55.5762 413.165 56.4427 413.031C57.3092 412.897 58.0658 412.567 58.737 412.042C59.4082 411.517 59.9208 410.834 60.2503 410.028Z" fill="black"/>
<path d="M87.2208 432.475C88.551 430.962 89.3564 429.521 89.6371 428.142C89.9178 426.763 89.6493 425.31 88.8317 423.797C88.014 422.283 86.574 420.611 84.5115 418.792L76.8719 412.03L74.602 414.593L77.1648 416.864L63.5331 432.28L60.9703 430.01L58.7004 432.573L67.0478 439.945L69.3178 437.382L66.6451 435.026L71.3436 429.704L74.0406 432.097C76.8109 434.514 79.2883 435.649 81.4728 435.502C83.6451 435.356 85.5611 434.343 87.2208 432.475ZM78.7879 431.242C77.8238 430.803 76.7133 430.034 75.4563 428.911L73.5281 427.214L80.2646 419.598L82.4003 421.49C84.2308 423.101 85.256 424.541 85.4878 425.811C85.7197 427.068 85.2682 428.337 84.1332 429.619C83.2423 430.632 82.3759 431.255 81.5094 431.511C80.6551 431.767 79.752 431.682 78.7879 431.242Z" fill="black"/>
<path d="M99.388 444.864L101.536 441.727L100.84 441.239C99.0951 440.043 97.5696 439.396 96.2516 439.311C94.9458 439.225 93.4813 439.665 91.8826 440.641L94.3356 437.077L88.7096 433.208L86.8058 435.978L89.9666 438.151L82.9372 448.38L79.7764 446.207L77.8848 448.966L87.5503 455.618L89.4419 452.859L86.0126 450.504L88.4655 446.939C89.6127 445.255 90.6378 444.059 91.5165 443.363C92.3952 442.655 93.3959 442.362 94.5186 442.484C95.6414 442.606 97.0326 443.253 98.7168 444.401L99.388 444.864Z" fill="black"/>
<path d="M110.152 446.207C108.443 445.279 106.71 444.84 104.953 444.877C103.196 444.913 101.585 445.402 100.108 446.341C98.6314 447.281 97.4232 448.6 96.5079 450.308C95.6292 451.944 95.2021 453.641 95.2265 455.398C95.2509 457.156 95.7146 458.804 96.6543 460.317C97.5818 461.843 98.8876 463.052 100.584 463.967C102.219 464.846 103.916 465.261 105.685 465.2C107.455 465.139 109.102 464.638 110.616 463.698C112.117 462.771 113.313 461.477 114.203 459.841C115.07 458.242 115.485 456.558 115.448 454.788C115.412 453.018 114.936 451.37 114.033 449.832C113.081 448.319 111.799 447.098 110.152 446.207ZM110.677 457.974C110.115 458.987 109.383 459.817 108.455 460.439C107.528 461.05 106.515 461.404 105.417 461.465C104.318 461.526 103.281 461.306 102.292 460.769C101.304 460.232 100.547 459.487 99.986 458.535C99.4246 457.571 99.1561 456.521 99.1561 455.398C99.1561 454.275 99.4368 453.201 99.9738 452.2C100.511 451.199 101.255 450.382 102.195 449.759C103.135 449.137 104.16 448.795 105.258 448.709C106.369 448.636 107.406 448.868 108.382 449.393C109.383 449.93 110.164 450.699 110.689 451.663C111.226 452.64 111.482 453.677 111.482 454.788C111.482 455.899 111.213 456.961 110.677 457.974Z" fill="black"/>
<path d="M135.67 449.027L134.547 452.139L138.025 453.397L135.45 460.513C134.828 459.158 134.083 458.047 133.217 457.205C132.338 456.35 131.325 455.728 130.154 455.301C128.543 454.715 126.895 454.605 125.199 454.971C123.503 455.337 122.002 456.106 120.696 457.278C119.378 458.462 118.426 459.915 117.791 461.648C117.181 463.344 116.986 465.029 117.218 466.701C117.45 468.373 118.084 469.85 119.122 471.144C120.147 472.438 121.538 473.402 123.271 474.025C125.773 474.928 128.274 474.721 130.788 473.415L129.837 476.051L136.597 478.492L137.732 475.343L134.486 474.171L142.663 451.529L135.67 449.027ZM133.132 466.909C132.729 468.019 132.106 468.972 131.252 469.753C130.398 470.546 129.422 471.071 128.335 471.327C127.249 471.596 126.163 471.523 125.065 471.132C123.991 470.754 123.112 470.131 122.453 469.277C121.782 468.434 121.355 467.446 121.196 466.323C121.025 465.212 121.16 464.065 121.575 462.905C121.965 461.819 122.575 460.891 123.417 460.11C124.247 459.329 125.199 458.816 126.261 458.548C127.31 458.279 128.384 458.34 129.47 458.731C130.593 459.133 131.496 459.768 132.192 460.623C132.888 461.477 133.327 462.466 133.498 463.576C133.656 464.687 133.534 465.786 133.132 466.909Z" fill="black"/>
<path d="M162.116 464.297L155.098 462.893L154.439 466.189L157.747 466.848L155.721 477.003C153.463 478.224 151.511 478.663 149.863 478.334C149.058 478.175 148.521 477.833 148.264 477.308C148.008 476.783 147.971 476.039 148.167 475.075L150.778 462.014L144.469 460.757L143.81 464.065L146.434 464.59L144.64 473.585C144.152 476.014 144.225 477.833 144.859 479.054C145.494 480.262 146.678 481.056 148.447 481.397C150.4 481.788 152.621 481.373 155.111 480.152L154.684 482.313L161.591 483.692L162.25 480.409L159.04 479.762L162.116 464.297Z" fill="black"/>
<path d="M173.856 469.313C174.759 468.788 175.76 468.557 176.846 468.618C178.115 468.703 179.213 469.13 180.141 469.924C181.068 470.717 181.556 471.816 181.617 473.207L184.961 473.415L185.413 466.189L182.069 465.981L181.983 467.36C180.58 466.005 178.823 465.273 176.748 465.139C174.991 465.029 173.38 465.359 171.891 466.128C170.414 466.897 169.218 468.019 168.303 469.496C167.388 470.973 166.875 472.646 166.765 474.501C166.655 476.405 166.948 478.163 167.656 479.774C168.364 481.385 169.438 482.691 170.854 483.68C172.281 484.669 173.941 485.218 175.845 485.34C180.092 485.596 183.216 483.875 185.205 480.189L182.167 478.505C180.897 480.946 178.92 482.081 176.211 481.91C174.466 481.8 173.099 481.08 172.111 479.75C171.122 478.431 170.683 476.759 170.805 474.757C170.878 473.585 171.183 472.511 171.72 471.547C172.233 470.583 172.953 469.838 173.856 469.313Z" fill="black"/>
<path d="M193.626 460.94C194.053 460.476 194.261 459.927 194.224 459.304C194.187 458.657 193.955 458.132 193.492 457.717C193.04 457.302 192.479 457.107 191.844 457.144C191.222 457.168 190.709 457.425 190.294 457.888C189.879 458.352 189.684 458.901 189.709 459.524C189.733 460.146 189.977 460.671 190.441 461.099C190.892 461.526 191.429 461.721 192.052 461.697C192.674 461.66 193.199 461.404 193.626 460.94Z" fill="black"/>
<path d="M195.017 481.519L194.297 465.749L187.561 466.066L187.707 469.423L190.697 469.289L191.258 481.69L188.281 481.825L188.427 485.169L198.093 484.73L197.934 481.373L195.017 481.519Z" fill="black"/>
<path d="M219.693 478.797L218.351 469.374C218.034 467.165 217.399 465.59 216.435 464.663C215.471 463.735 214.141 463.393 212.456 463.637C210.418 463.93 208.356 465.09 206.281 467.116L205.952 464.821L198.947 465.822L199.423 469.155L202.754 468.679L204.512 480.97L201.18 481.446L201.656 484.766L211.919 483.302L211.444 479.981L208.185 480.445L206.745 470.375C208.576 468.447 210.321 467.36 211.981 467.128C212.762 467.019 213.36 467.189 213.774 467.665C214.189 468.129 214.482 468.959 214.653 470.156L216.447 482.655L223.342 481.666L222.866 478.358L219.693 478.797Z" fill="black"/>
<path d="M242.576 459.805L245.883 458.804L244.919 455.581L238.036 457.656L238.829 460.305C237.535 459.634 236.291 459.219 235.095 459.048C233.899 458.889 232.69 458.987 231.494 459.353C229.81 459.866 228.407 460.769 227.296 462.063C226.174 463.357 225.441 464.87 225.1 466.604C224.758 468.337 224.843 470.058 225.356 471.791C225.868 473.488 226.723 474.94 227.907 476.124C229.102 477.321 230.494 478.138 232.105 478.59C233.716 479.042 235.363 479.017 237.059 478.505C238.268 478.138 239.403 477.504 240.452 476.613C241.502 475.709 242.295 474.672 242.795 473.512L243.308 475.221C243.869 477.076 243.808 478.724 243.125 480.152C242.441 481.593 241.196 482.581 239.378 483.118C238.377 483.424 237.413 483.546 236.486 483.485C235.546 483.436 234.57 483.216 233.545 482.85L232.007 486.146C234.57 487.171 237.316 487.244 240.245 486.365C243.332 485.438 245.419 483.863 246.505 481.641C247.591 479.42 247.652 476.71 246.688 473.512L242.576 459.805ZM241.05 470.351C240.83 471.474 240.342 472.45 239.598 473.305C238.853 474.147 237.914 474.745 236.779 475.087C235.656 475.429 234.57 475.453 233.52 475.16C232.471 474.867 231.568 474.318 230.811 473.5C230.042 472.694 229.493 471.718 229.151 470.571C228.822 469.46 228.749 468.349 228.968 467.226C229.176 466.115 229.652 465.139 230.372 464.297C231.092 463.454 231.995 462.868 233.093 462.539C234.204 462.209 235.302 462.197 236.388 462.515C237.474 462.832 238.414 463.393 239.219 464.211C240.013 465.017 240.574 465.957 240.891 466.994C241.221 468.117 241.27 469.24 241.05 470.351Z" fill="black"/>
<path d="M265.787 448.709C265.055 448.221 264.25 447.94 263.371 447.892C262.48 447.831 261.638 448.001 260.808 448.429C260.039 448.831 259.417 449.393 258.941 450.15C258.465 450.906 258.196 451.724 258.148 452.615C258.099 453.506 258.282 454.349 258.685 455.13C259.087 455.911 259.661 456.533 260.405 456.997C261.162 457.461 261.967 457.73 262.846 457.779C263.725 457.827 264.555 457.656 265.348 457.241C266.141 456.826 266.776 456.241 267.239 455.484C267.703 454.727 267.959 453.909 267.996 453.043C268.033 452.164 267.862 451.346 267.471 450.601C267.081 449.832 266.519 449.21 265.787 448.709Z" fill="black"/>
<path d="M300.434 430.571C301.374 432.976 301.593 435.234 301.117 437.333C300.641 439.433 299.543 441.166 297.834 442.533C296.443 443.656 294.881 444.291 293.148 444.449C291.415 444.608 289.719 444.327 288.071 443.595C286.424 442.863 285.008 441.764 283.824 440.287C282.677 438.859 281.921 437.272 281.542 435.527C281.164 433.781 281.237 432.097 281.75 430.473C282.262 428.838 283.226 427.459 284.63 426.336C286.094 425.164 287.742 424.48 289.572 424.273C291.403 424.053 293.221 424.358 295.028 425.164L297.81 422.942L292.306 416.082L289.585 418.267L291.476 420.623C289.78 420.538 288.157 420.733 286.607 421.209C285.057 421.685 283.593 422.478 282.201 423.589C280.127 425.249 278.662 427.19 277.796 429.411C276.929 431.633 276.722 433.952 277.161 436.381C277.613 438.81 278.699 441.105 280.432 443.278C282.031 445.28 283.947 446.756 286.18 447.709C288.413 448.661 290.732 448.99 293.136 448.697C295.54 448.404 297.773 447.416 299.848 445.756C302.374 443.742 304.034 441.325 304.864 438.517C305.682 435.71 305.511 432.817 304.327 429.839L300.434 430.571Z" fill="black"/>
<path d="M320.668 411.237C319.313 410.028 317.776 409.223 316.043 408.844C314.31 408.466 312.601 408.539 310.893 409.064C309.184 409.589 307.707 410.553 306.45 411.945C305.157 413.385 304.327 414.972 303.949 416.681C303.57 418.402 303.668 420.086 304.229 421.746C304.791 423.406 305.804 424.883 307.244 426.177C308.623 427.422 310.173 428.24 311.893 428.63C313.614 429.021 315.31 428.948 317.019 428.398C318.715 427.849 320.204 426.86 321.485 425.444C322.73 424.065 323.524 422.503 323.877 420.77C324.231 419.036 324.134 417.315 323.585 415.631C323.011 413.946 322.035 412.482 320.668 411.237ZM320.155 420.135C319.972 421.221 319.496 422.185 318.752 423.003C318.007 423.833 317.092 424.407 316.03 424.724C314.956 425.042 313.882 425.066 312.784 424.798C311.686 424.529 310.709 424.016 309.867 423.247C309.013 422.491 308.403 421.575 308.012 420.513C307.634 419.451 307.536 418.377 307.72 417.279C307.903 416.192 308.366 415.228 309.123 414.398C309.892 413.556 310.807 412.982 311.869 412.689C312.943 412.396 314.017 412.384 315.091 412.653C316.177 412.921 317.129 413.434 317.983 414.203C318.849 414.972 319.472 415.887 319.85 416.937C320.253 417.987 320.351 419.049 320.155 420.135Z" fill="black"/>
<path d="M338.376 396.467L330.468 391.17C328.613 389.925 327.026 389.351 325.696 389.436C324.366 389.522 323.218 390.291 322.267 391.707C321.119 393.416 320.595 395.723 320.717 398.628L318.801 397.334L314.859 403.217L317.653 405.097L319.521 402.302L329.821 409.223L327.954 412.018L330.736 413.885L336.508 405.268L333.726 403.4L331.895 406.134L323.45 400.459C323.243 397.81 323.597 395.784 324.536 394.392C324.976 393.733 325.513 393.416 326.135 393.416C326.758 393.416 327.575 393.757 328.576 394.429L339.059 401.459L342.94 395.674L340.157 393.806L338.376 396.467Z" fill="black"/>
<path d="M347.077 375.167C344.38 373.825 341.89 374.691 339.584 377.755L338.022 379.806C337.033 381.185 336.277 382.015 335.752 382.284C335.227 382.564 334.678 382.552 334.129 382.271C333.506 381.966 333.14 381.429 333.03 380.672C332.92 379.916 333.091 379.086 333.531 378.195C334.373 376.498 335.74 375.509 337.631 375.241L338.668 375.766L340.133 372.836L334.446 370.004L332.981 372.934L333.714 373.3C332.518 374.106 331.505 375.326 330.699 376.962C330.211 377.938 329.931 378.988 329.845 380.099C329.76 381.21 329.955 382.259 330.419 383.224C330.882 384.188 331.639 384.932 332.713 385.469C334.031 386.116 335.3 386.263 336.545 385.884C337.79 385.506 339.022 384.53 340.231 382.979L341.475 381.429C342.513 380.062 343.306 379.196 343.831 378.842C344.355 378.475 344.892 378.439 345.454 378.707C346.21 379.086 346.638 379.696 346.699 380.514C346.772 381.332 346.528 382.296 345.991 383.394C345.49 384.395 344.807 385.14 343.928 385.653C343.05 386.153 342.171 386.287 341.256 386.043L340.67 385.75L339.169 388.753L345.039 391.67L346.528 388.667L345.6 388.204C346.21 387.862 346.821 387.349 347.443 386.69C348.065 386.031 348.566 385.299 348.981 384.493C349.981 382.479 350.311 380.611 349.969 378.915C349.615 377.194 348.651 375.949 347.077 375.167Z" fill="black"/>
<path d="M356.779 355.015L341.866 349.864L339.535 356.626L342.72 357.725L343.818 354.527L353.606 357.908C354.509 360.3 354.692 362.29 354.143 363.889C353.874 364.67 353.46 365.146 352.91 365.342C352.361 365.525 351.617 365.464 350.689 365.146L338.107 360.801L336.008 366.892L339.193 367.99L340.072 365.464L348.737 368.454C351.08 369.26 352.886 369.443 354.18 368.979C355.473 368.527 356.401 367.441 356.999 365.744C357.645 363.865 357.536 361.606 356.657 358.97L358.732 359.69L361.026 353.038L357.865 351.939L356.779 355.015Z" fill="black"/>
<path d="M359.989 341.942L336.521 336.596L334.934 343.566L338.156 344.298L338.913 341.003L359.159 345.604L358.402 348.912L361.673 349.657L363.894 339.843L360.635 339.098L359.989 341.942Z" fill="black"/>
<path d="M362.503 326.013C362.625 326.709 362.649 327.38 362.551 328.04C362.466 328.577 362.258 328.943 361.917 329.114C361.575 329.285 360.892 329.297 359.854 329.15L349.945 327.649L350.47 324.195L347.15 323.694L346.625 327.149L340.365 326.209L343.196 330.456L346.064 330.884L345.698 333.349L349.017 333.85L349.383 331.384L360.074 332.995C361.978 333.288 363.381 333.142 364.272 332.58C365.163 332.019 365.724 330.957 365.956 329.394C366.066 328.687 366.042 327.734 365.871 326.526L362.503 326.013Z" fill="black"/>
<path d="M363.601 316.261L347.882 315.04L347.358 321.766L350.701 322.034L350.933 319.056L363.308 320.008L363.076 322.986L366.42 323.243L367.164 313.612L363.821 313.356L363.601 316.261Z" fill="black"/>
<path d="M339.803 314.845C339.34 315.248 339.071 315.772 339.022 316.407C338.974 317.03 339.157 317.567 339.572 318.043C339.986 318.507 340.499 318.775 341.121 318.812C341.732 318.861 342.293 318.69 342.769 318.287C343.257 317.884 343.513 317.371 343.562 316.761C343.611 316.151 343.428 315.602 343.013 315.113C342.598 314.637 342.086 314.369 341.463 314.32C340.829 314.271 340.279 314.442 339.803 314.845Z" fill="black"/>
<path d="M363.93 300.014L363.967 303.31L353.801 303.444C352.129 301.381 351.275 299.514 351.251 297.842C351.238 297.048 351.495 296.487 352.007 296.133C352.52 295.779 353.386 295.596 354.582 295.584L367.213 295.413L367.116 288.443L363.772 288.492L363.821 291.702L354.314 291.824C352.08 291.848 350.445 292.288 349.396 293.118C348.346 293.948 347.846 295.217 347.858 296.926C347.882 298.989 348.773 301.174 350.506 303.493L348.2 303.518L348.297 310.597L351.666 310.548L351.617 307.179L364.016 307.021L364.065 310.377L367.421 310.329L367.286 299.953L363.93 300.014Z" fill="black"/>
<path d="M373.193 268.803C371.363 267.143 368.775 266.338 365.444 266.374L351.104 266.545L351.055 263.091L347.687 263.14L347.773 270.329L350.543 270.292C349.53 271.342 348.798 272.429 348.309 273.527C347.821 274.638 347.589 275.81 347.614 277.079C347.626 278.837 348.114 280.436 349.054 281.864C349.994 283.292 351.238 284.415 352.813 285.233C354.375 286.038 356.059 286.441 357.865 286.417C359.635 286.392 361.258 285.977 362.734 285.172C364.211 284.354 365.383 283.231 366.274 281.815C367.152 280.387 367.579 278.8 367.555 277.018C367.543 275.761 367.25 274.491 366.676 273.234C366.103 271.977 365.322 270.939 364.345 270.122L366.127 270.097C368.068 270.073 369.63 270.585 370.826 271.647C372.022 272.697 372.62 274.174 372.644 276.066C372.656 277.103 372.51 278.068 372.192 278.947C371.887 279.825 371.411 280.716 370.777 281.595L373.523 283.988C375.219 281.803 376.049 279.178 376.012 276.127C375.963 272.905 375.024 270.463 373.193 268.803ZM363.345 279.496C362.771 280.424 361.99 281.131 361.001 281.644C360.013 282.157 358.915 282.413 357.731 282.425C356.571 282.438 355.473 282.193 354.472 281.681C353.459 281.168 352.642 280.448 352.044 279.532C351.434 278.605 351.129 277.567 351.116 276.432C351.104 275.273 351.397 274.211 352.007 273.246C352.617 272.294 353.423 271.537 354.411 271C355.412 270.463 356.462 270.183 357.548 270.158C358.707 270.146 359.806 270.402 360.818 270.915C361.831 271.44 362.637 272.172 363.247 273.124C363.845 274.076 364.162 275.15 364.174 276.334C364.187 277.531 363.906 278.568 363.345 279.496Z" fill="black"/>
<path d="M11.3495 235.481C11.3495 239.582 14.669 242.902 18.7695 242.902C22.87 242.902 26.1894 239.582 26.1894 235.481C26.1894 231.379 22.87 228.059 18.7695 228.059C14.6812 228.071 11.3495 231.392 11.3495 235.481Z" fill="black"/>
<path d="M346.015 235.481C346.015 239.582 349.335 242.902 353.435 242.902C357.536 242.902 360.855 239.582 360.855 235.481C360.855 231.379 357.536 228.059 353.435 228.059C349.335 228.071 346.015 231.392 346.015 235.481Z" fill="black"/>
</g>
<defs>
<clipPath id="clip0">
<rect width="376" height="487" fill="white"/>
</clipPath>
</defs>
</svg>
